<?xml version="1.0" standalone="no"?>
<!DOCTYPE svg PUBLIC "-//W3C//DTD SVG 20010904//EN"
 "http://www.w3.org/TR/2001/REC-SVG-20010904/DTD/svg10.dtd">
<svg version="1.0" xmlns="http://www.w3.org/2000/svg"
 width="512.000000pt" height="512.000000pt" viewBox="0 0 512.000000 512.000000"
 preserveAspectRatio="xMidYMid meet">

<g transform="translate(0.000000,512.000000) scale(0.100000,-0.100000)"
fill="#000000" stroke="none">
<path d="M1190 2630 c-264 -19 -520 -81 -800 -194 l-85 -34 3 -44 c8 -110 67
-392 103 -484 l9 -26 68 38 c37 21 98 58 136 82 248 159 509 255 801 296 22 3
56 8 76 12 l36 5 -5 172 c-2 95 -5 173 -6 174 -6 7 -243 10 -336 3z"/>
<path d="M1767 2593 c-4 -3 -7 -75 -7 -159 l0 -152 63 -6 c227 -24 386 -62
659 -157 265 -93 412 -134 540 -153 131 -20 327 -22 333 -3 2 6 0 152 -4 322
-4 171 -8 273 -9 228 -2 -75 -4 -83 -21 -83 -11 0 -26 -7 -35 -15 -8 -8 -24
-15 -35 -15 -11 0 -23 -4 -26 -10 -3 -5 -15 -10 -25 -10 -10 0 -20 -4 -22 -9
-4 -12 -162 -42 -253 -48 -95 -6 -224 25 -517 126 -173 59 -343 104 -504 131
-131 23 -128 22 -137 13z"/>
<path d="M3183 2533 c9 -2 23 -2 30 0 6 3 -1 5 -18 5 -16 0 -22 -2 -12 -5z"/>
<path d="M3770 2534 c-8 -1 -54 -6 -102 -9 l-88 -7 0 -264 c0 -145 4 -264 8
-264 16 0 115 36 269 98 83 34 185 71 225 82 182 51 411 63 596 32 l102 -18
10 36 c5 19 12 67 16 106 l6 70 -148 42 c-178 49 -273 67 -459 87 -122 13
-392 19 -435 9z"/>
<path d="M1520 2043 c-14 -2 -32 -7 -40 -10 -8 -3 -19 -5 -24 -4 -16 4 -150
-21 -168 -31 -26 -13 -22 -28 7 -28 16 0 25 6 25 15 0 8 6 15 14 15 8 0 21 3
30 6 12 5 16 0 16 -20 0 -19 -5 -26 -20 -26 -13 0 -20 -7 -20 -20 0 -13 7 -20
20 -20 11 0 20 -4 20 -10 0 -14 -23 -13 -38 2 -9 9 -15 9 -24 0 -7 -7 -22 -12
-35 -12 -13 0 -23 -6 -23 -14 0 -20 -30 -28 -93 -25 -29 1 -57 0 -63 -3 -7 -5
-115 -16 -220 -23 -34 -2 -364 -206 -364 -224 0 -13 86 -175 126 -237 67 -102
165 -234 175 -234 19 0 145 62 253 124 234 136 396 200 591 231 115 19 377 19
515 1 120 -17 336 -74 525 -141 154 -55 328 -99 445 -114 132 -16 409 -3 395
19 -2 4 7 5 20 2 15 -2 25 0 25 7 0 7 4 10 9 6 13 -7 141 35 141 47 0 5 5 6
10 3 6 -3 10 -1 10 5 0 7 6 10 12 8 16 -6 92 27 133 56 17 11 34 21 38 21 4 0
18 9 30 21 12 11 39 28 60 38 20 9 35 21 32 26 -4 6 2 7 11 3 13 -5 15 -3 9 7
-6 9 -4 12 6 8 8 -3 24 1 34 9 17 12 18 15 5 24 -12 8 -10 9 7 4 16 -4 39 4
77 29 29 19 57 39 61 45 3 6 11 9 16 6 5 -4 9 -1 9 6 0 7 3 9 7 6 3 -4 20 2
37 12 55 34 250 128 279 135 39 9 61 35 81 96 14 41 15 55 5 61 -26 16 -148
33 -244 33 -86 1 -104 -2 -130 -20 -16 -11 -42 -20 -58 -19 -15 1 -32 -4 -38
-11 -6 -8 -15 -11 -20 -8 -5 3 -9 0 -9 -5 0 -6 -6 -11 -14 -11 -8 0 -16 -6
-19 -13 -3 -7 -24 -19 -48 -27 -24 -7 -64 -22 -89 -33 -25 -11 -61 -26 -80
-34 -19 -8 -53 -23 -75 -32 -48 -21 -246 -89 -295 -101 -19 -5 -62 -16 -95
-25 -281 -76 -564 -107 -791 -87 -71 6 -147 14 -169 18 -37 7 -38 8 -15 15 15
4 -2 6 -40 4 -36 -2 -55 -2 -42 1 18 5 22 12 22 45 0 32 3 39 20 39 17 0 20 7
20 40 l0 40 -41 0 -40 0 3 70 c2 51 0 70 -9 72 -33 3 -38 2 -35 -11 2 -9 -3
-11 -13 -7 -9 3 -28 6 -41 6 -20 0 -25 4 -22 23 2 16 -2 22 -14 21 -10 -1 -16
2 -13 6 3 4 -13 12 -35 18 -23 5 -40 6 -40 1 0 -5 9 -9 19 -9 25 0 36 -16 15
-24 -8 -3 -12 -2 -9 4 4 6 -8 10 -28 10 -22 0 -37 6 -41 15 -6 17 19 21 27 5
3 -6 4 -5 3 2 -3 17 -115 50 -151 43 -22 -4 -26 -2 -15 5 8 5 10 10 4 10 -5 0
-59 6 -120 14 -101 13 -326 18 -384 9z m220 -28 c0 -8 -4 -15 -10 -15 -5 0
-10 7 -10 15 0 8 5 15 10 15 6 0 10 -7 10 -15z m67 9 c-3 -3 -12 -4 -19 -1 -8
3 -5 6 6 6 11 1 17 -2 13 -5z m90 0 c-3 -3 -12 -4 -19 -1 -8 3 -5 6 6 6 11 1
17 -2 13 -5z m-407 -15 c0 -4 -18 -7 -40 -6 -21 1 -34 4 -28 8 16 10 68 8 68
-2z m285 1 c3 -5 1 -10 -4 -10 -6 0 -11 5 -11 10 0 6 2 10 4 10 3 0 8 -4 11
-10z m85 0 c0 -5 -9 -10 -20 -10 -11 0 -20 5 -20 10 0 6 9 10 20 10 11 0 20
-4 20 -10z m70 0 c0 -5 -4 -10 -10 -10 -5 0 -10 5 -10 10 0 6 5 10 10 10 6 0
10 -4 10 -10z m204 -42 c-3 -4 -11 -5 -19 -1 -21 7 -19 12 4 10 11 0 18 -5 15
-9z m-9 -38 c8 -13 -15 -13 -35 0 -12 8 -11 10 7 10 12 0 25 -4 28 -10z m-717
-57 c-10 -2 -26 -2 -35 0 -10 3 -2 5 17 5 19 0 27 -2 18 -5z m59 1 c-3 -3 -12
-4 -19 -1 -8 3 -5 6 6 6 11 1 17 -2 13 -5z m899 -8 c16 -17 19 -46 4 -46 -5 0
-10 6 -10 14 0 8 -10 22 -22 30 -19 14 -20 16 -5 16 10 0 25 -6 33 -14z m-106
-196 c0 -5 -12 -10 -26 -10 -14 0 -23 4 -19 10 3 6 15 10 26 10 10 0 19 -4 19
-10z m113 -47 c-7 -2 -21 -2 -30 0 -10 3 -4 5 12 5 17 0 24 -2 18 -5z"/>
<path d="M1180 1970 c-13 -8 -13 -10 2 -10 9 0 20 5 23 10 8 13 -5 13 -25 0z"/>
<path d="M1243 1973 c4 -3 7 -12 7 -21 0 -15 2 -15 10 -2 8 12 10 11 10 -7 0
-14 6 -23 15 -23 21 0 19 37 -2 43 -10 2 -25 7 -33 9 -8 3 -12 3 -7 1z"/>
<path d="M1120 1946 c-6 -8 -18 -12 -26 -9 -8 3 -14 3 -14 0 0 -15 31 -13 56
4 19 12 23 19 13 19 -9 0 -22 -6 -29 -14z"/>
<path d="M2345 1910 c3 -5 8 -10 11 -10 2 0 4 5 4 10 0 6 -5 10 -11 10 -5 0
-7 -4 -4 -10z"/>
<path d="M1040 1890 c0 -5 5 -10 11 -10 5 0 7 5 4 10 -3 6 -8 10 -11 10 -2 0
-4 -4 -4 -10z"/>
<path d="M2435 1880 c-3 -4 4 -19 15 -31 11 -13 19 -18 20 -11 0 6 -4 12 -10
12 -5 0 -10 5 -10 11 0 7 10 5 25 -5 17 -11 31 -14 41 -8 12 7 6 12 -30 24
-26 9 -49 12 -51 8z"/>
<path d="M915 1860 c-3 -5 -2 -10 4 -10 5 0 13 5 16 10 3 6 2 10 -4 10 -5 0
-13 -4 -16 -10z"/>
<path d="M2765 1775 c17 -8 39 -14 50 -14 11 0 0 7 -25 15 -56 17 -64 17 -25
-1z"/>
<path d="M2958 1733 c6 -2 18 -2 25 0 6 3 1 5 -13 5 -14 0 -19 -2 -12 -5z"/>
<path d="M4445 1441 c-50 -26 -144 -80 -210 -121 -273 -168 -382 -222 -530
-264 -189 -54 -390 -68 -585 -41 -160 23 -211 36 -490 125 -358 115 -486 140
-712 140 -207 0 -408 -45 -573 -127 -56 -28 -283 -161 -343 -201 -10 -7 0 -22
42 -62 263 -249 684 -462 1055 -534 821 -161 1644 116 2168 728 114 133 285
387 271 401 -2 2 -44 -18 -93 -44z"/>
</g>
</svg>
